{"title":"Schindler's List 1993 DVD9rip English Klam","uid":6532043,"size":3042188486,"categoryP":"video","categoryS":"movies","magnet":"?xt=urn:btih:a0a9b8c9ee137e03e8fc65459f6c0e62a322f0d0&amp;dn=Schindler%5C%27s+List+1993+DVD9rip+English+Klam&amp;tr=udp%3A%2F%2Ftracker.openbittorrent.com%3A80&amp;tr=udp%3A%2F%2Fopen.demonii.com%3A1337&amp;tr=udp%3A%2F%2Ftracker.coppersurfer.tk%3A6969&amp;tr=udp%3A%2F%2Fexodus.desync.com%3A6969","seeders":1,"leechers":0,"uploader":"Klambake","files":-1,"time":1310382661,"description":"With: Liam Neeson, Ralph Fiennes and Ben Kingsley\n\nOskar Schindler is een ijdele en hebberige Duitse zakenman die echter tijdens het Nazi-regime zeer menselijke trekjes begint te vertonen wanneer hij besluit om zijn fabriek te gaan gebruiken als vluchtplaats voor Joden. Gebaseerd op het waargebeurde verhaal van Schindler, die op deze manier ongeveer 1100 Joden van de gaskamers van Auschwitz heeft weten te redden.\n\nIn Poland during World War II, Oskar Schindler gradually becomes concerned for his Jewish workforce after witnessing their persecution by the Nazis. \n\n------------------ Dutch Friends ------------------\nYou can find my Friends at: http://www.Film-Test.nl \n------ They got my dutchs subs ---- and more ------\n\nGeneral:\n\nComplete name                    : Schindler's List\\Schindler's List.avi\nFormat                           : AVI\nFormat/Info                      : Audio Video Interleave\nFormat profile                   : OpenDML\nFile size                        : 2.83 GiB\nDuration                         : 3h 7mn\nOverall bit rate                 : 2 167 Kbps\nWriting application              : VirtualDubMod 1.5.10.2 (build 2540/release)\nWriting library                  : VirtualDubMod build 2540/release\n\nVideo:\n\nFormat                           : MPEG-4 Visual\nFormat profile                   : Simple@L3\nFormat settings, BVOP            : No\nFormat settings, QPel            : No\nFormat settings, GMC             : No warppoints\nFormat settings, Matrix          : Default (H.263)\nCodec ID                         : XVID\nCodec ID/Hint                    : XviD\nDuration                         : 3h 7mn\nBit rate                         : 1 772 Kbps\nWidth                            : 652 pixels\nHeight                           : 352 pixels\nDisplay aspect ratio             : 1.852\nFrame rate                       : 25.000 fps\nColor space                      : YUV\nChroma subsampling               : 4:2:0\nBit depth                        : 8 bits\nScan type                        : Progressive\nBits/(Pixel*Frame)               : 0.309\nStream size                      : 2.32 GiB (82%)\nWriting library                  : XviD 1.1.2 (UTC 2006-11-01)\n\nAudio:\n\nFormat                           : AC-3\nFormat/Info                      : Audio Coding 3\nMode extension                   : CM (complete main)\nCodec ID                         : 2000\nDuration                         : 3h 7mn\nBit rate mode                    : Constant\nBit rate                         : 384 Kbps\nChannel(s)                       : 6 channels\nChannel positions                : Front: L C R, Side: L R, LFE\nSampling rate                    : 48.0 KHz\nBit depth                        : 16 bits\nStream size                      : 514 MiB (18%)\nAlignment                        : Split accross interleaves\nInterleave, duration             : 40 ms (1.00 video frame)\nInterleave, preload duration     : 500 ms\n\n","torrent":{"xt":"urn:btih:a0a9b8c9ee137e03e8fc65459f6c0e62a322f0d0","amp;dn":"Schindler%5C%27s+List+1993+DVD9rip+English+Klam","amp;tr":["udp%3A%2F%2Ftracker.openbittorrent.com%3A80","udp%3A%2F%2Fopen.demonii.com%3A1337","udp%3A%2F%2Ftracker.coppersurfer.tk%3A6969","udp%3A%2F%2Fexodus.desync.com%3A6969"],"infoHash":"a0a9b8c9ee137e03e8fc65459f6c0e62a322f0d0","infoHashBuffer":{"type":"Buffer","data":[160,169,184,201,238,19,126,3,232,252,101,69,159,108,14,98,163,34,240,208]},"announce":[],"urlList":[]}}